<?xml version="1.0" encoding="UTF-8"?>
<svg id="Capa_1" xmlns="http://www.w3.org/2000/svg" version="1.1" viewBox="0 0 180 180">
  <!-- Generator: Adobe Illustrator 30.1.0, SVG Export Plug-In . SVG Version: 2.1.1 Build 136)  -->
  <defs>
    <style>
      .st0 {
        fill: #052e80;
      }

      .st1 {
        fill: #bc4400;
      }

      .st2 {
        fill: #fff;
      }

      .st3 {
        fill: #0685eb;
      }

      .st4 {
        fill: #f46d00;
      }

      .st5 {
        fill: #faa00b;
      }

      .st6 {
        fill: #fcfdfd;
      }
    </style>
  </defs>
  <path class="st4" d="M177.27,90c0-48.2-39.07-87.27-87.27-87.27S2.73,41.8,2.73,90c0,32.03,17.26,60.01,42.98,75.19,9.6-14.2,25.86-23.54,44.29-23.54s34.69,9.34,44.29,23.54c25.72-15.18,42.98-43.16,42.98-75.19Z"/>
  <path class="st5" d="M90,141.65c-18.44,0-34.69,9.34-44.29,23.54,12.99,7.67,28.12,12.08,44.29,12.08s31.31-4.42,44.29-12.08c-9.6-14.2-25.86-23.54-44.29-23.54Z"/>
  <path class="st5" d="M151.79,47.06c1.25-3.41,2.42-8.29,1.44-13.17,0,0-7.12,4.89-26.72,5.34l.08.04c-19.11.82-34.64,15.34-37.1,33.98-2.83-18.21-18.16-32.28-36.97-33.09l.08-.04c-19.59-.45-26.72-5.34-26.72-5.34-.98,4.88.19,9.75,1.44,13.17-9.53,7.15-15.69,18.53-15.69,31.36,0,21.64,17.54,39.18,39.18,39.18,12.17,0,23.04-5.55,30.23-14.25h17.79c7.18,8.18,17.71,13.36,29.46,13.36,21.64,0,39.18-17.54,39.18-39.18,0-12.83-6.16-24.21-15.69-31.36Z"/>
  <circle class="st6" cx="126.51" cy="80.2" r="30.28"/>
  <circle class="st3" cx="122.95" cy="80.2" r="17.81"/>
  <circle class="st0" cx="122.95" cy="80.2" r="12.47"/>
  <circle class="st2" cx="130.07" cy="73.08" r="3.56"/>
  <circle class="st6" cx="52.6" cy="81.09" r="30.28"/>
  <circle class="st3" cx="56.16" cy="81.09" r="17.81"/>
  <circle class="st0" cx="56.16" cy="81.09" r="12.47"/>
  <circle class="st2" cx="49.04" cy="73.97" r="3.56"/>
  <g>
    <path class="st5" d="M87.77,121.19l-10.02-12.79c-4.38-5.6-1.65-13.85,5.21-15.72h0c4.46-1.22,9.17-1.22,13.64,0h0c6.86,1.87,9.59,10.12,5.21,15.72l-10.02,12.79c-1.02,1.3-3,1.3-4.02,0Z"/>
    <path class="st1" d="M89.78,123.94c-1.34,0-2.58-.6-3.41-1.66h0s-10.02-12.79-10.02-12.79c-2.43-3.1-3.14-7.18-1.9-10.91,1.24-3.74,4.24-6.59,8.04-7.62,4.77-1.3,9.81-1.3,14.57,0,3.8,1.03,6.8,3.88,8.04,7.62,1.24,3.74.53,7.81-1.9,10.91l-10.02,12.79c-.83,1.06-2.07,1.66-3.41,1.66ZM89.18,120.09c.2.26.47.29.61.29s.41-.04.61-.3l10.02-12.79c1.71-2.19,2.2-4.96,1.32-7.6-.87-2.64-2.91-4.57-5.6-5.3-4.16-1.13-8.54-1.13-12.7,0-2.68.73-4.72,2.66-5.6,5.3-.87,2.64-.39,5.41,1.32,7.59l10.02,12.79Z"/>
  </g>
</svg>