<?xml version="1.0" encoding="UTF-8"?>
<svg id="Capa_1" xmlns="http://www.w3.org/2000/svg" version="1.1" viewBox="0 0 374.23 58.95">
  <!-- Generator: Adobe Illustrator 30.1.0, SVG Export Plug-In . SVG Version: 2.1.1 Build 136)  -->
  <defs>
    <style>
      .st0 {
        fill: #fff;
      }
    </style>
  </defs>
  <path class="st0" d="M183.86,4.62c2.61-.12,16.26-.18,18.98-.18s14.17.09,16.95.18c.45,0,.81.37.82.82.04,2.32.07,4.62.07,6.98,0,2-.02,4.03-.07,6.15-1.35.06-5.7.11-9.94.14.05,3.31.09,6.71.09,10.52,0,8.21-.12,16.41-.33,24.62-2.61.12-4.44.18-7.17.18s-5.63-.09-8.42-.18c-.45,0-.82-.37-.82-.82-.16-7.71-.33-15.59-.33-23.79,0-3.78.03-7.21.07-10.61-3.74-.08-7.62-.17-9.1-.22-.45,0-.82-.37-.82-.82-.05-2.37-.08-4.55-.08-6.73,0-2.02.02-4.04.08-6.23Z"/>
  <path class="st0" d="M219.68,50.61c2.43-15,5.93-30.87,8.97-45.99,3.66-.17,7.44-.18,11.28-.18s7.81.05,11.71.18c.45,0,.89.37.96.82,3.1,15.71,6.95,32.48,9.36,48.41-2.58.12-4.41.18-7.14.18s-5.24,0-8.04-.18c-.45-.03-.88-.37-.96-.82-.54-2.71-1.03-5.44-1.49-8.21h-7.62c-.45,3.03-.96,6.05-1.56,9.03-2.63.12-4.06.18-6.79.18s-5.62-.09-8.39-.18c-.4,0-.69-.29-.69-.68,0-.19.26-1.74.4-2.57ZM242.7,34.16c-.87-6.13-1.67-12.3-2.53-18.41-.75,6.08-1.36,12.25-2.07,18.41h4.6Z"/>
  <path class="st0" d="M265.25,4.62c2.61-.12,4.44-.18,7.17-.18s5.64.09,8.42.18c.45,0,.82.37.82.82.16,7.71.33,15.59.33,23.79,0,3.68-.02,7.17-.07,10.65h.35c2.79,0,9.74.09,12.52.18.45,0,.81.37.82.82.04,2.5.07,4.79.07,7.09,0,1.95-.02,3.92-.07,6.04-2.61.12-9.36.18-12.09.18s-14.66-.25-17.45-.35c-.45,0-.82-.37-.82-.82-.16-7.71-.33-15.59-.33-23.79s.12-16.41.33-24.62Z"/>
  <path class="st0" d="M298.89,4.62c2.61-.12,14.29-.18,17.02-.18s11.54.09,14.33.18c.45,0,.81.37.82.82.04,2.5.07,4.79.07,7.09,0,1.95-.02,3.92-.07,6.04-2.61.12-10.34.16-13.05.16-.62,0-1.74-.01-3.13-.03-.02,1.41-.03,2.84-.04,4.31,3.27.02,7.73.08,9.82.15.45,0,.81.37.82.82.04,2.23.07,4.19.07,6.17,0,1.75-.02,3.51-.07,5.48h-10.64c.01,1.44.03,2.86.04,4.27h.99c2.79,0,11.74.07,14.52.16.45,0,.81.37.82.82.04,2.5.07,4.79.07,7.09,0,1.95-.02,3.92-.07,6.04-2.61.12-11.33.18-14.06.18s-14.66-.25-17.45-.35c-.45,0-.82-.37-.82-.82-.16-7.71-.33-15.59-.33-23.79s.12-16.41.33-24.62Z"/>
  <path class="st0" d="M336.84,38.53c5.74,1.81,10.83,2.86,14.55,2.86,3.07,0,4.37-1.61,4.37-2.9,0-1.65-2.36-2.32-5.5-3.21-6.17-1.75-15.34-4.35-15.34-16.98,0-13.3,8.21-14.25,19.45-14.25,4.76,0,10.35.71,15.84,1.81l-1.85,13.64c-3.84-1.73-9.68-3.33-14.79-3.33-2.48,0-4.12.78-4.12,2.3,0,1.43,2.52,2.19,5.89,3.2,6.76,2.03,16.92,5.06,16.92,16.49,0,13.07-9.03,16.11-20.1,16.11-5.58,0-11.57-.31-17.31-.9l2.01-14.84Z"/>
  <path class="st0" d="M2.32,4.79c2.61-.12,4.45-.18,7.18-.18s5.64.09,8.43.18c.45,0,.82.37.82.82.16,7.72.33,15.61.33,23.82,0,3.68-.02,7.18-.07,10.66h.35c2.79,0,9.75.09,12.54.18.45,0,.81.37.82.82.04,2.5.07,4.79.07,7.1,0,1.96-.02,3.93-.07,6.04-2.61.12-9.38.18-12.11.18s-14.68-.25-17.47-.35c-.45,0-.82-.37-.82-.82-.16-7.72-.33-15.61-.33-23.83s.12-16.43.33-24.65Z"/>
  <path class="st0" d="M34.44,4.79c2.61-.12,4.45-.18,7.18-.18s5.64.09,8.43.18c.45,0,.82.37.82.82.16,7.72.33,18.4.33,26.62,0,7.3,1.07,8.38,3.29,8.38s3.12-1.08,3.12-8.41c0-8.19.12-19.2.33-27.41,2.61-.12,4.45-.18,7.18-.18s5.64.09,8.43.18c.45,0,.82.37.82.82.16,7.72.33,15.94.33,24.13,0,17.78-6.74,24.59-18.32,25.17-14.79,0-22.26-4.5-22.26-25.17,0-8.19.12-16.73.33-24.95Z"/>
  <path class="st0" d="M79.38,4.79c2.61-.12,4.04-.18,6.77-.18,2.38,0,4.53.08,7.12.18.45.02.74.41.9.82l8.51,21.02-.29-21.85c2.61-.12,4.45-.18,7.18-.18s5.17.08,7.61.18c.45.02.82.37.82.82.16,7.72.33,15.61.33,23.82s-.12,16.43-.33,24.65c-2.28.13-3.63.18-6.36.18-2.46,0-4.86-.05-7.53-.18-.45-.02-.74-.37-.9-.82l-8.51-21.02.29,21.85c-2.61.12-4.04.18-6.77.18s-5.38-.09-8.02-.18c-.45-.02-.82-.37-.82-.82-.16-7.72-.33-15.61-.33-23.83s.12-16.43.33-24.65Z"/>
  <path class="st0" d="M129.71,4.62c2.2,0,4.42.08,6.6.21.46.03,1.1.33,1.26.82,1.82,5.52,3.73,12.35,5.26,17.91,1.53-5.56,3.45-12.4,5.26-17.91.16-.49.79-.79,1.26-.82,2.18-.14,4.4-.21,6.6-.21,2.94,0,5.84.14,8.6.46-1.45,6.23-3.62,14.6-6.85,20.95-1.88,3.21-4.19,5.72-6.64,7.73.08,6.77.17,13.54.2,20.32-2.61.12-4.61.18-7.34.18s-5.81-.09-8.6-.18c-.45,0-.82-.37-.82-.82,0-6.35.06-12.82.12-19.48-2.45-2.02-4.77-4.52-6.66-7.74-3.23-6.35-5.39-14.72-6.85-20.95,2.75-.32,5.66-.46,8.6-.46Z"/>
</svg>