<?xml version="1.0" encoding="UTF-8"?>
<svg id="Capa_1" xmlns="http://www.w3.org/2000/svg" version="1.1" viewBox="0 0 340 215">
  <!-- Generator: Adobe Illustrator 30.1.0, SVG Export Plug-In . SVG Version: 2.1.1 Build 136)  -->
  <defs>
    <style>
      .st0 {
        fill: #fff;
      }

      .st1 {
        fill: #22c694;
      }
    </style>
  </defs>
  <path class="st1" d="M8.74,121.35c4.36-.21,27.23-.31,31.8-.31s23.73.15,28.4.31c.76,0,1.36.62,1.38,1.37.07,3.89.12,7.74.12,11.69,0,3.34-.04,6.75-.12,10.3-2.27.11-9.54.19-16.64.24.09,5.55.15,11.23.15,17.63,0,13.74-.21,27.49-.55,41.23-4.36.21-7.44.31-12.01.31s-9.44-.15-14.1-.31c-.76,0-1.37-.62-1.37-1.37-.28-12.92-.55-26.11-.55-39.86,0-6.33.04-12.07.12-17.77-6.27-.13-12.77-.29-15.24-.37-.76,0-1.37-.62-1.37-1.38-.08-3.97-.13-7.62-.13-11.28,0-3.38.04-6.77.13-10.43h-.02Z"/>
  <path class="st1" d="M68.73,198.37c4.07-25.13,9.93-51.71,15.03-77.02,6.13-.29,12.46-.31,18.89-.31s13.08.09,19.61.31c.76,0,1.48.62,1.62,1.37,5.2,26.31,11.64,54.4,15.67,81.09-4.33.21-7.38.31-11.95.31s-8.78,0-13.47-.31c-.76-.05-1.47-.62-1.62-1.37-.9-4.53-1.72-9.12-2.49-13.74h-12.76c-.76,5.08-1.61,10.13-2.62,15.12-4.4.21-6.81.31-11.38.31s-9.41-.15-14.05-.31c-.68,0-1.15-.49-1.15-1.13,0-.32.44-2.91.67-4.3v-.02ZM107.29,170.82c-1.46-10.27-2.8-20.61-4.23-30.83-1.25,10.18-2.28,20.52-3.47,30.83h7.7Z"/>
  <path class="st1" d="M145.07,121.35c4.36-.21,7.44-.31,12.01-.31s9.44.15,14.1.31c.76,0,1.38.62,1.38,1.37.27,12.92.55,26.11.55,39.86,0,6.16-.04,12.01-.12,17.83h.58c4.67,0,16.31.15,20.97.31.76,0,1.36.62,1.38,1.38.07,4.18.12,8.02.12,11.88,0,3.27-.04,6.57-.12,10.11-4.36.21-15.68.31-20.25.31s-24.55-.42-29.22-.58c-.76,0-1.38-.62-1.38-1.37-.27-12.92-.55-26.11-.55-39.86s.21-27.49.55-41.23h0Z"/>
  <path class="st1" d="M201.41,121.35c4.36-.21,23.93-.31,28.5-.31s19.33.15,24,.31c.76,0,1.36.62,1.38,1.37.07,4.18.12,8.02.12,11.88,0,3.27-.04,6.57-.12,10.11-4.36.21-17.32.27-21.85.27-1.04,0-2.91-.02-5.24-.05-.03,2.37-.05,4.76-.07,7.22,5.48.04,12.94.13,16.44.25.76,0,1.36.62,1.38,1.38.07,3.74.12,7.02.12,10.33,0,2.93-.03,5.88-.12,9.18h-17.82c.02,2.42.05,4.78.07,7.15h1.67c4.67,0,19.66.11,24.32.27.76,0,1.36.62,1.38,1.38.07,4.18.13,8.02.13,11.88,0,3.27-.04,6.57-.13,10.11-4.36.21-18.98.31-23.55.31s-24.55-.42-29.22-.58c-.76,0-1.38-.62-1.38-1.37-.27-12.92-.55-26.11-.55-39.86s.21-27.49.55-41.23h-.01Z"/>
  <path class="st1" d="M264.97,178.13c9.62,3.02,18.14,4.79,24.37,4.79,5.14,0,7.31-2.69,7.31-4.86,0-2.77-3.96-3.89-9.22-5.37-10.34-2.93-25.69-7.28-25.69-28.43,0-22.29,13.74-23.87,32.57-23.87,7.97,0,17.34,1.19,26.52,3.02l-3.09,22.84c-6.43-2.89-16.22-5.58-24.78-5.58-4.16,0-6.9,1.31-6.9,3.85,0,2.39,4.23,3.67,9.87,5.36,11.32,3.4,28.34,8.47,28.34,27.63,0,21.89-15.12,26.98-33.67,26.98-9.35,0-19.39-.53-29-1.51l3.37-24.85h0Z"/>
  <g>
    <path class="st0" d="M9.11,8.86c5.24-.25,8.93-.37,14.42-.37s11.33.18,16.93.37c.91,0,1.65.74,1.65,1.65.33,15.51.66,31.35.66,47.86,0,7.39-.05,14.42-.14,21.41h.7c5.6,0,19.58.18,25.19.37.91,0,1.63.74,1.65,1.65.09,5.02.15,9.63.15,14.26,0,3.93-.04,7.89-.15,12.14-5.24.25-18.83.37-24.32.37s-29.49-.51-35.09-.7c-.91,0-1.65-.74-1.65-1.65-.33-15.51-.66-31.35-.66-47.86s.25-33,.66-49.51h0Z"/>
    <path class="st0" d="M73.63,8.86c5.24-.25,8.93-.37,14.42-.37s11.33.18,16.94.37c.91,0,1.65.74,1.65,1.65.33,15.51.66,36.97.66,53.47,0,14.66,2.15,16.83,6.6,16.83s6.27-2.18,6.27-16.89c0-16.45.25-38.56.66-55.06,5.24-.25,8.93-.37,14.42-.37s11.33.18,16.93.37c.91,0,1.65.74,1.65,1.65.33,15.51.66,32.01.66,48.46,0,35.72-13.53,49.4-36.8,50.55-29.71,0-44.72-9.05-44.72-50.55,0-16.45.25-33.61.66-50.11Z"/>
    <path class="st0" d="M163.9,8.86c5.24-.25,8.11-.37,13.59-.37,4.78,0,9.1.17,14.29.37.91.04,1.48.81,1.82,1.65l17.09,42.23-.58-43.88c5.24-.25,8.93-.37,14.42-.37s10.39.17,15.28.37c.91.04,1.65.74,1.65,1.65.33,15.51.66,31.35.66,47.86s-.25,33.01-.66,49.51c-4.58.26-7.28.37-12.77.37-4.94,0-9.77-.11-15.12-.37-.91-.04-1.49-.74-1.82-1.65l-17.09-42.23.58,43.88c-5.24.25-8.11.37-13.6.37s-10.8-.18-16.11-.37c-.91-.03-1.65-.74-1.65-1.65-.33-15.51-.66-31.35-.66-47.86s.25-33,.66-49.51h.02Z"/>
    <path class="st0" d="M265,8.53c4.42,0,8.88.16,13.26.43.93.06,2.2.67,2.52,1.65,3.65,11.08,7.49,24.81,10.57,35.98,3.08-11.17,6.92-24.9,10.57-35.98.32-.98,1.59-1.59,2.52-1.65,4.38-.27,8.83-.43,13.26-.43,5.9,0,11.74.28,17.27.92-2.92,12.51-7.27,29.33-13.75,42.08-3.77,6.44-8.42,11.49-13.33,15.53.15,13.6.33,27.21.4,40.81-5.24.25-9.26.37-14.75.37s-11.66-.18-17.26-.37c-.91,0-1.65-.74-1.65-1.65,0-12.76.11-25.74.24-39.13-4.91-4.05-9.59-9.07-13.39-15.56-6.48-12.76-10.84-29.57-13.76-42.08,5.53-.65,11.38-.92,17.27-.92h.01Z"/>
  </g>
</svg>