<?xml version="1.0" encoding="UTF-8"?>
<svg id="Capa_1" xmlns="http://www.w3.org/2000/svg" version="1.1" viewBox="0 0 402.48 201.61">
  <!-- Generator: Adobe Illustrator 30.1.0, SVG Export Plug-In . SVG Version: 2.1.1 Build 136)  -->
  <defs>
    <style>
      .st0 {
        fill: #fff;
      }

      .st1 {
        fill: #22c694;
      }
    </style>
  </defs>
  <path class="st0" d="M16.95,127.32c2.32.8,4.6,1.2,6.85,1.2,3.24,0,6.15-.62,8.73-1.86,2.58-1.24,4.78-3.09,6.59-5.56,1.81-2.46,3.2-5.52,4.18-9.17s1.47-7.88,1.47-12.69c0-5.95-.55-11.36-1.66-16.24-1.11-4.87-2.76-9.03-4.95-12.47-.02-.03-.04-.06-.07-.09l7.22.61c.51.4,1.09.78,1.82,1.1.99.44,2.14.78,3.44,1.03,1.3.25,2.65.37,4.05.37,2.54,0,4.84-.45,6.89-1.36,2.06-.91,3.95-2.29,5.67-4.16,1.72-1.87,3.29-4.21,4.7-7.05,1.41-2.83,2.73-6.17,3.96-10.02h16.5l3.5,12.12c.18.61.42,1.33.72,2.14.31.82.8,1.59,1.49,2.32.69.73,1.63,1.34,2.85,1.84,1.21.5,2.81.74,4.79.74,1.43,0,2.77-.15,4.03-.44,1.25-.29,2.4-.66,3.44-1.1,1.04-.44,1.95-.9,2.76-1.38.8-.48,1.47-.91,1.99-1.29l-.74-1.62c-.53.29-1.14.58-1.84.85-.7.28-1.46.42-2.28.42-.38,0-.69-.09-.94-.26-.25-.18-.45-.4-.61-.68-.16-.28-.3-.6-.42-.98-.12-.38-.23-.79-.35-1.23l-3.41-11.47h8.45v-3.85h-9.5l-9.41-32.34c-.52-1.78-1.19-3.35-1.99-4.71-.8-1.36-1.86-2.48-3.17-3.37-1.31-.89-2.94-1.56-4.88-2.01s-4.31-.68-7.11-.68c-1.98,0-3.95.17-5.91.52-1.96.35-3.83.87-5.63,1.55-1.79.69-3.46,1.53-5.01,2.54-1.55,1.01-2.89,2.17-4.03,3.5-1.14,1.33-2.03,2.8-2.67,4.42-.64,1.62-.96,3.39-.96,5.32,0,1.29.2,2.51.61,3.68.41,1.17,1.01,2.19,1.79,3.06.79.88,1.74,1.57,2.87,2.08s2.39.77,3.79.77c.9,0,1.82-.14,2.73-.42.92-.28,1.74-.7,2.45-1.27.71-.57,1.3-1.28,1.75-2.12.45-.84.68-1.85.68-3.02,0-.82-.12-1.51-.35-2.08-.23-.57-.52-1.03-.85-1.38-.33-.35-.7-.6-1.09-.77-.39-.16-.75-.24-1.07-.24-.44,0-.83.12-1.18.37-.35.25-.71.51-1.07.79-.37.28-.79.54-1.27.79-.48.25-1.07.37-1.77.37-.18,0-.42-.04-.74-.11-.32-.07-.65-.25-.98-.53-.34-.28-.63-.69-.88-1.25-.25-.55-.37-1.3-.37-2.23,0-1.61.44-3.06,1.34-4.35.89-1.3,2.02-2.39,3.39-3.28,1.37-.89,2.9-1.58,4.57-2.06,1.68-.48,3.31-.72,4.88-.72,1.69,0,3.04.28,4.05.83,1.01.55,1.8,1.65,2.39,3.28-.44,1.98-.98,4.31-1.62,6.98-.64,2.67-1.37,5.54-2.19,8.6-.82,3.06-1.69,6.26-2.61,9.59-.92,3.33-1.86,6.62-2.82,9.89h-11.47v3.85h10.33c-1.11,3.41-2.25,6.33-3.41,8.75-1.17,2.42-2.39,4.41-3.65,5.97-1.27,1.56-2.59,2.71-3.96,3.44-1.37.73-2.82,1.09-4.33,1.09s-2.66-.32-3.5-.96c-.45-.34-.85-.71-1.22-1.09l-.2-20.09c-.02-2.07-1.71-3.73-3.78-3.71-2.07.02-3.73,1.71-3.71,3.78,0,.41.08.81.2,1.18l5.48,15.97c-.05-.09-.14-.2-.18-.29-.35-.64-.76-.96-1.23-.96s-.91.13-1.3.36l-8.94-11.94c-1.24-1.66-3.59-1.99-5.24-.75-1.66,1.24-1.99,3.59-.75,5.24.24.33.54.61.86.83l12.48,8.68c-.08.2-.2.37-.27.59-.15.51-.22,1.01-.23,1.5l-13.64-5.84c-.08-.05-.16-.11-.24-.16-3.27-1.88-7.06-2.82-11.38-2.82-1.31,0-2.63.16-3.96.48s-2.59.76-3.79,1.31c-1.2.55-2.3,1.22-3.3,2.01-1.01.79-1.86,1.64-2.56,2.54l1.14,1.53c.2-.18.53-.45.99-.81.45-.36,1.03-.74,1.73-1.14.7-.4,1.52-.74,2.47-1.03.95-.29,2.01-.44,3.17-.44,2.04,0,3.95.53,5.71,1.58,1.76,1.05,3.34,2.49,4.73,4.33,1.39,1.84,2.57,4.02,3.57,6.54.99,2.52,1.76,5.25,2.32,8.16-.35-.26-.74-.53-1.18-.81-.44-.28-.95-.53-1.53-.77-.59-.23-1.27-.43-2.06-.59-.79-.16-1.68-.24-2.67-.24-2.57,0-5.01.52-7.31,1.55-2.31,1.04-4.33,2.54-6.08,4.51-1.75,1.97-3.14,4.38-4.18,7.24-1.04,2.86-1.55,6.13-1.55,9.8,0,4.26.6,7.86,1.79,10.79,1.2,2.93,2.74,5.3,4.62,7.11,1.88,1.81,3.98,3.12,6.3,3.92ZM80.37,35.12c1.12-4.29,2.28-8.87,3.48-13.74l7.44,25.74h-14.27c1.11-3.7,2.22-7.7,3.35-11.99ZM19.58,91.67c1.06-2.98,2.74-4.46,5.01-4.46,1.34,0,2.44.36,3.31,1.07.86.72,1.64,1.52,2.34,2.43.32,1.23.55,2.55.7,3.98.15,1.43.25,2.78.31,4.05.06,1.27.09,2.39.09,3.37v1.95c0,13.34-2.33,20-7,20-1.11,0-2.07-.45-2.87-1.36-.8-.9-1.46-2.17-1.97-3.81-.51-1.63-.89-3.59-1.14-5.86-.25-2.27-.37-4.78-.37-7.53,0-6.24.53-10.85,1.6-13.83Z"/>
  <path class="st0" d="M70.59,128.52c2.68,0,5.25-.52,7.7-1.55,2.45-1.03,4.6-2.56,6.46-4.57,1.85-2.01,3.33-4.49,4.44-7.44,1.11-2.95,1.66-6.33,1.66-10.15s-.56-7.19-1.66-10c-1.11-2.82-2.59-5.14-4.44-6.98-1.85-1.84-4.01-3.2-6.46-4.09-2.45-.89-5.02-1.34-7.7-1.34s-5.25.48-7.7,1.44c-2.45.96-4.6,2.41-6.46,4.33-1.85,1.93-3.33,4.33-4.44,7.2-1.11,2.87-1.66,6.22-1.66,10.04s.55,7.18,1.66,10.07c1.11,2.89,2.59,5.3,4.44,7.22,1.85,1.93,4.01,3.38,6.46,4.35,2.45.98,5.02,1.47,7.7,1.47ZM64.2,98.58c.15-2.22.45-4.19.92-5.93.47-1.73,1.14-3.14,2.01-4.2.88-1.06,2.03-1.6,3.46-1.6s2.58.5,3.46,1.51c.88,1.01,1.55,2.36,2.01,4.05.47,1.69.78,3.63.94,5.8.16,2.17.24,4.43.24,6.76s-.08,4.64-.24,6.92c-.16,2.28-.47,4.32-.94,6.13-.47,1.81-1.14,3.27-2.01,4.38-.88,1.11-2.03,1.66-3.46,1.66s-2.58-.53-3.46-1.6c-.88-1.07-1.55-2.47-2.01-4.22-.47-1.75-.77-3.74-.92-5.97-.15-2.23-.22-4.51-.22-6.85s.07-4.61.22-6.83Z"/>
  <path class="st0" d="M117.4,92.28c.83-.5,1.68-.91,2.56-1.25.88-.33,1.77-.5,2.67-.5,1.23,0,2.16.3,2.8.9.64.6,1.05,1.35,1.23,2.25h1.23c.47-1.31.78-2.43.94-3.35.16-.92.24-1.87.24-2.87,0-1.6-.42-2.85-1.27-3.74-.85-.89-2.01-1.34-3.5-1.34-.7,0-1.4.13-2.1.39-.7.26-1.38.61-2.04,1.05-.66.44-1.29.93-1.9,1.49-.61.55-1.18,1.12-1.71,1.71-1.25,1.37-2.44,2.9-3.55,4.6,0-.44-.01-.97-.04-1.6-.03-.63-.13-1.28-.28-1.97-.16-.69-.4-1.36-.72-2.04-.32-.67-.77-1.28-1.34-1.81-.57-.54-1.3-.98-2.19-1.31-.89-.33-1.96-.5-3.22-.5s-2.39.13-3.5.39c-1.11.26-2.15.6-3.11,1.01-.96.41-1.86.88-2.69,1.42-.83.54-1.58,1.09-2.25,1.64l.92,1.09c.41-.32.79-.57,1.14-.74.35-.18.77-.26,1.27-.26.93,0,1.6.31,1.99.94.39.63.59,1.36.59,2.21v33.79c0,.32.06.74.18,1.27.12.53.41,1.04.88,1.53.47.5,1.15.93,2.03,1.29.89.36,2.11.55,3.65.55s2.76-.17,3.65-.5c.89-.33,1.56-.74,2.01-1.2s.74-.96.85-1.49c.12-.52.18-.98.18-1.36v-28.4c.61-.53,1.29-1.08,2.03-1.66.74-.58,1.53-1.12,2.36-1.62Z"/>
  <path class="st0" d="M131.3,87.21c.35-.18.77-.26,1.27-.26.93,0,1.6.31,1.99.94.39.63.59,1.36.59,2.21v33.79c0,.32.06.74.18,1.27.12.53.41,1.04.88,1.53.47.5,1.15.93,2.03,1.29.89.36,2.11.55,3.65.55s2.77-.17,3.65-.5c.89-.33,1.56-.74,2.01-1.2s.74-.96.85-1.49c.12-.52.18-.98.18-1.36v-29.32c.2-.29.55-.73,1.03-1.31.48-.58,1.05-1.17,1.71-1.75.66-.58,1.36-1.1,2.12-1.55.76-.45,1.53-.68,2.32-.68.47,0,.88.11,1.22.33.35.22.64.5.88.85.23.35.41.74.52,1.16.12.42.18.84.18,1.25v30.94c0,.32.06.74.18,1.27.12.53.4,1.04.85,1.53.45.5,1.12.93,2.01,1.29.89.36,2.11.55,3.65.55s2.77-.17,3.68-.5c.9-.33,1.58-.74,2.03-1.2.45-.47.74-.96.85-1.49.12-.52.18-.98.18-1.36v-29.32c.2-.29.54-.73,1.01-1.31.47-.58,1.03-1.17,1.69-1.75.65-.58,1.37-1.1,2.14-1.55s1.55-.68,2.34-.68c.47,0,.88.11,1.23.33.35.22.64.5.85.85.22.35.39.74.5,1.16.12.42.18.84.18,1.25v29.24c0,.88.16,1.7.48,2.47.32.77.81,1.44,1.47,2.01s1.46,1.02,2.41,1.36c.95.33,2.06.5,3.35.5,1.52,0,2.88-.23,4.09-.68,1.21-.45,2.28-1.01,3.2-1.68.92-.67,1.71-1.38,2.39-2.12.67-.74,1.21-1.42,1.62-2.04l-1.05-.92c-.38.41-.79.81-1.22,1.2-.44.4-.93.59-1.49.59-.41,0-.74-.09-.98-.26-.25-.18-.43-.4-.55-.68-.12-.28-.19-.57-.22-.88s-.04-.59-.04-.85v-27.09c0-1.28-.17-2.57-.5-3.85-.33-1.28-.87-2.44-1.6-3.46-.73-1.02-1.69-1.85-2.89-2.47-1.2-.63-2.64-.94-4.33-.94-.88,0-1.74.12-2.6.35-.86.23-1.71.55-2.54.94-.83.39-1.63.84-2.39,1.34-.76.5-1.46,1.01-2.1,1.53-1.55,1.23-3.02,2.61-4.42,4.16,0-.7-.17-1.52-.5-2.47-.33-.95-.87-1.85-1.6-2.71-.73-.86-1.69-1.6-2.89-2.21-1.2-.61-2.64-.92-4.33-.92-.88,0-1.75.12-2.63.35-.88.23-1.72.55-2.54.94-.82.39-1.61.84-2.39,1.34-.77.5-1.48,1.01-2.12,1.53-1.57,1.23-3.05,2.61-4.42,4.16,0-.64-.05-1.44-.15-2.39-.1-.95-.4-1.86-.9-2.73s-1.27-1.63-2.32-2.26c-1.05-.63-2.52-.94-4.42-.94-1.23,0-2.39.13-3.5.39-1.11.26-2.15.6-3.11,1.01-.96.41-1.86.88-2.69,1.42-.83.54-1.58,1.09-2.25,1.64l.92,1.09c.41-.32.79-.57,1.14-.74Z"/>
  <path class="st0" d="M208.13,76.68c.66.54,1.41.97,2.28,1.29.86.32,1.8.48,2.82.48s1.92-.16,2.78-.48c.86-.32,1.61-.75,2.25-1.29.64-.54,1.15-1.17,1.51-1.9.36-.73.55-1.52.55-2.36s-.18-1.6-.55-2.34c-.37-.74-.87-1.39-1.51-1.95-.64-.55-1.39-.99-2.25-1.31-.86-.32-1.79-.48-2.78-.48s-1.96.16-2.82.48c-.86.32-1.62.76-2.28,1.31-.66.55-1.17,1.2-1.53,1.95-.37.74-.55,1.52-.55,2.34s.18,1.63.55,2.36c.37.73.88,1.37,1.53,1.9Z"/>
  <path class="st0" d="M206.82,87.88c.39.63.59,1.36.59,2.21v33.79c0,.32.05.74.15,1.27.1.53.37,1.04.81,1.53.44.5,1.1.93,1.97,1.29.88.36,2.09.55,3.63.55s2.77-.17,3.68-.5c.9-.33,1.6-.74,2.08-1.23.48-.48.79-.99.92-1.53.13-.54.2-1,.2-1.38v-34.23c0-.64-.05-1.39-.15-2.23s-.4-1.64-.9-2.39c-.5-.74-1.27-1.37-2.32-1.88-1.05-.51-2.52-.77-4.42-.77-1.23,0-2.39.13-3.5.39-1.11.26-2.15.6-3.11,1.01-.96.41-1.86.88-2.69,1.42-.83.54-1.58,1.09-2.25,1.64l.92,1.09c.41-.32.79-.57,1.14-.74.35-.18.77-.26,1.27-.26.93,0,1.6.31,1.99.94Z"/>
  <path class="st0" d="M228.55,87.21c.35-.18.77-.26,1.27-.26.93,0,1.6.31,1.99.94.39.63.59,1.36.59,2.21v33.79c0,.32.06.74.18,1.27.12.53.41,1.04.88,1.53.47.5,1.15.93,2.03,1.29.89.36,2.11.55,3.65.55s2.77-.17,3.65-.5c.89-.33,1.56-.74,2.01-1.2s.74-.96.85-1.49c.12-.52.18-.98.18-1.36v-28.4c.61-.53,1.29-1.08,2.03-1.66.74-.58,1.53-1.12,2.36-1.62.83-.5,1.68-.91,2.56-1.25.88-.33,1.77-.5,2.67-.5,1.23,0,2.16.3,2.8.9.64.6,1.05,1.35,1.23,2.25h1.23c.47-1.31.78-2.43.94-3.35.16-.92.24-1.87.24-2.87,0-1.6-.42-2.85-1.27-3.74-.85-.89-2.01-1.34-3.5-1.34-.7,0-1.4.13-2.1.39-.7.26-1.38.61-2.04,1.05-.65.44-1.29.93-1.9,1.49-.61.55-1.18,1.12-1.71,1.71-1.25,1.37-2.44,2.9-3.55,4.6,0-.44-.01-.97-.04-1.6-.03-.63-.13-1.28-.28-1.97-.16-.69-.4-1.36-.72-2.04-.32-.67-.77-1.28-1.34-1.81-.57-.54-1.3-.98-2.19-1.31-.89-.33-1.96-.5-3.22-.5s-2.39.13-3.5.39c-1.11.26-2.15.6-3.11,1.01-.96.41-1.86.88-2.69,1.42-.83.54-1.58,1.09-2.25,1.64l.92,1.09c.41-.32.79-.57,1.14-.74Z"/>
  <g>
    <path class="st1" d="M29.5,158.78c-.39.3-.79.56-1.21.79-.42.23-.87.41-1.36.53-.49.13-1.01.19-1.58.19-.81,0-1.55-.13-2.23-.39-.68-.26-1.3-.61-1.86-1.04-.56-.44-1.05-.93-1.48-1.49-.43-.56-.79-1.15-1.08-1.76-.29-.61-.51-1.23-.67-1.83-.15-.61-.23-1.17-.23-1.69l9.6-5.66c.73-.45,1.31-.98,1.75-1.59.44-.61.66-1.29.66-2.05,0-.63-.15-1.23-.44-1.81-.29-.58-.73-1.08-1.32-1.52-.59-.44-1.33-.78-2.22-1.04-.89-.26-1.94-.39-3.13-.39-.91,0-1.85.13-2.83.38-.98.25-1.94.62-2.88,1.12-.94.49-1.83,1.11-2.68,1.86-.85.75-1.6,1.61-2.23,2.6-.64.99-1.15,2.1-1.52,3.33-.37,1.23-.56,2.58-.56,4.06,0,2.04.31,3.82.93,5.34.62,1.52,1.45,2.79,2.49,3.81,1.04,1.02,2.22,1.78,3.56,2.3,1.34.51,2.71.76,4.12.76s2.66-.17,3.76-.52c1.1-.35,2.06-.79,2.89-1.31.83-.53,1.53-1.09,2.11-1.69.58-.6,1.06-1.15,1.43-1.65l-.61-.58c-.39.34-.78.66-1.17.96ZM17.58,148.44c.02-.66.06-1.34.15-2.05.08-.71.2-1.42.35-2.13.15-.7.36-1.33.63-1.88.27-.55.61-1,1.02-1.35.41-.35.91-.52,1.49-.52.45,0,.84.15,1.17.44.32.29.59.66.8,1.09.21.44.36.9.45,1.4.09.49.13.94.13,1.35,0,.37-.02.68-.06.94s-.1.46-.18.63c-.08.17-.19.32-.33.44-.14.12-.31.25-.52.38l-5.13,2.94c0-.45,0-1.01.02-1.66Z"/>
    <path class="st1" d="M54.5,140.77c-.58-.99-1.3-1.69-2.15-2.11-.85-.42-1.83-.63-2.93-.63-.5,0-.99.06-1.47.19-.48.13-.93.3-1.36.52-.43.22-.83.47-1.21.74-.38.27-.73.56-1.03.85-.76.68-1.44,1.45-2.04,2.31,0-.36-.03-.8-.09-1.32-.06-.53-.22-1.03-.5-1.52-.28-.49-.7-.9-1.29-1.25-.58-.35-1.4-.52-2.45-.52-.68,0-1.33.07-1.94.22-.62.15-1.19.33-1.73.56-.53.23-1.03.49-1.49.79-.46.3-.88.6-1.25.91l.51.61c.23-.18.44-.32.63-.41.19-.1.43-.15.7-.15.52,0,.89.17,1.11.52s.33.76.33,1.23v18.75c0,.18.03.41.1.7.06.29.23.58.49.85.26.28.64.51,1.13.72.49.2,1.17.3,2.03.3s1.53-.09,2.03-.28c.49-.19.87-.41,1.12-.68.25-.27.41-.55.47-.85.06-.3.1-.55.1-.77v-16.23c.13-.16.29-.4.47-.73.19-.32.41-.65.68-.97.27-.32.58-.61.95-.86.36-.25.78-.38,1.25-.38.39,0,.77.1,1.14.3.37.2.71.62,1.02,1.26.31.64.56,1.57.74,2.79.19,1.22.28,2.85.28,4.89s-.04,3.7-.13,5.19c-.09,1.48-.23,2.77-.41,3.85-.19,1.08-.41,1.99-.67,2.71-.26.72-.56,1.32-.9,1.79-.34.47-.72.83-1.13,1.07-.41.24-.86.42-1.35.53l.27,1c.58-.02,1.28-.11,2.08-.28.8-.17,1.64-.47,2.51-.91.88-.44,1.74-1.04,2.6-1.81.86-.77,1.63-1.76,2.31-2.97.68-1.21,1.23-2.69,1.65-4.42.42-1.73.63-3.77.63-6.12s-.15-4.43-.46-6.06c-.31-1.63-.75-2.94-1.34-3.92Z"/>
    <path class="st1" d="M96.55,164.92c-1.46-1.44-3.06-2.57-4.81-3.37-1.75-.8-3.41-1.36-4.99-1.68v-.26c.99-.38,2.03-.87,3.11-1.47,1.08-.6,2.07-1.36,2.98-2.28.9-.92,1.64-2.03,2.21-3.33.57-1.3.85-2.85.85-4.66,0-2.25-.4-4.21-1.2-5.91-.8-1.69-1.88-3.1-3.24-4.22s-2.93-1.97-4.73-2.54c-1.8-.57-3.67-.85-5.63-.85s-3.64.23-5.23.68c-1.59.45-3.05,1.09-4.38,1.93-1.33.83-2.55,1.82-3.65,2.95-1.11,1.14-2.12,2.39-3.02,3.77l1.31,1.05c.47-.64.95-1.23,1.47-1.77.51-.54,1.06-1,1.64-1.38.58-.38,1.23-.68,1.93-.9.7-.22,1.47-.33,2.32-.33,1.46,0,2.69.3,3.7.9,1.01.6,1.83,1.37,2.47,2.3.64.93,1.1,1.98,1.38,3.15.28,1.17.42,2.33.42,3.5,0,1.66-.3,3.13-.9,4.4-.6,1.27-1.38,2.34-2.34,3.22-.96.88-2.04,1.53-3.24,1.97-1.2.44-2.41.66-3.63.66v1.8c2.63.09,4.9.52,6.83,1.31,1.93.79,3.52,1.83,4.79,3.13,1.27,1.3,2.22,2.82,2.84,4.55.63,1.74.94,3.6.94,5.58,0,2.68-.42,4.94-1.25,6.76-.83,1.82-1.86,3.29-3.09,4.4s-2.55,1.9-3.98,2.39c-1.43.48-2.74.72-3.94.72-2.71,0-5.04-.54-6.98-1.62-1.94-1.08-3.65-2.66-5.14-4.73l-1.31,1.14c.44.64.96,1.39,1.55,2.23.6.85,1.3,1.71,2.1,2.58.8.88,1.73,1.74,2.78,2.6,1.05.86,2.25,1.63,3.59,2.3,1.34.67,2.84,1.21,4.49,1.62,1.65.41,3.46.61,5.45.61,2.51,0,4.77-.31,6.78-.94,2.01-.63,3.78-1.47,5.3-2.52,1.52-1.05,2.82-2.25,3.9-3.61,1.08-1.36,1.96-2.77,2.65-4.25.69-1.47,1.19-2.95,1.51-4.42.32-1.47.48-2.84.48-4.09,0-2.98-.48-5.54-1.44-7.68-.96-2.14-2.17-3.94-3.63-5.38Z"/>
    <path class="st1" d="M148.52,173.93c-.74.54-1.52,1.01-2.34,1.42-.82.41-1.69.73-2.6.96-.92.23-1.89.35-2.91.35-2.27,0-4.26-.49-5.95-1.47-1.69-.98-3.11-2.36-4.25-4.14-1.14-1.78-1.99-3.93-2.56-6.46-.57-2.52-.85-5.32-.85-8.38,0-2.77.31-5.14.92-7.11.61-1.97,1.39-3.58,2.32-4.84.93-1.25,1.97-2.17,3.11-2.76,1.14-.58,2.22-.88,3.24-.88.96,0,1.63.18,2.01.53.38.35.61.82.68,1.4.07.59.06,1.24-.04,1.97-.1.73-.15,1.49-.15,2.28,0,.61.09,1.2.26,1.77.18.57.45,1.09.83,1.55.38.47.88.84,1.49,1.12.61.28,1.37.42,2.28.42.85,0,1.59-.17,2.23-.5.64-.33,1.17-.79,1.6-1.36.42-.57.74-1.24.96-2.01.22-.77.33-1.58.33-2.43,0-1.14-.26-2.24-.79-3.31-.53-1.07-1.32-2.01-2.39-2.82-1.06-.82-2.4-1.47-4.01-1.97-1.6-.5-3.49-.74-5.64-.74-1.63,0-3.33.23-5.1.7-1.77.47-3.5,1.16-5.19,2.08-1.69.92-3.31,2.06-4.84,3.43-1.53,1.37-2.87,2.96-4.03,4.77-1.15,1.81-2.07,3.83-2.74,6.06-.67,2.23-1.01,4.68-1.01,7.33,0,3.41.56,6.46,1.68,9.13s2.62,4.94,4.49,6.81c1.87,1.87,4.01,3.29,6.41,4.27,2.41.98,4.88,1.47,7.42,1.47s4.8-.31,6.78-.94c1.98-.63,3.72-1.42,5.21-2.36,1.49-.95,2.76-1.96,3.81-3.04,1.05-1.08,1.91-2.07,2.58-2.98l-1.1-1.05c-.7.61-1.42,1.19-2.17,1.73Z"/>
    <path class="st1" d="M199.23,176.42c-.44.4-.93.59-1.49.59-.44,0-.77-.09-1.01-.26-.23-.18-.41-.4-.53-.68-.12-.28-.19-.57-.22-.88-.03-.31-.04-.59-.04-.85v-31.47c0-.88-.16-1.7-.48-2.47-.32-.77-.8-1.44-1.44-2.01-.64-.57-1.44-1.02-2.41-1.36-.96-.33-2.09-.5-3.37-.5-1.49,0-2.84.23-4.05.68-1.21.45-2.28,1.01-3.22,1.68-.93.67-1.73,1.38-2.39,2.12-.66.74-1.2,1.42-1.64,2.03l1.1.92c.35-.41.75-.81,1.2-1.2.45-.39.94-.59,1.47-.59.44,0,.77.09,1.01.26.23.18.41.4.52.68.12.28.19.57.22.88.03.31.04.59.04.85v25.56c-.23.29-.61.73-1.12,1.31-.51.58-1.11,1.17-1.82,1.77-.7.6-1.47,1.12-2.32,1.55-.85.44-1.69.66-2.54.66-.53,0-.98-.11-1.36-.33-.38-.22-.69-.5-.94-.85-.25-.35-.44-.74-.57-1.16-.13-.42-.2-.84-.2-1.25v-29.24c0-.88-.16-1.7-.48-2.47-.32-.77-.8-1.44-1.44-2.01-.64-.57-1.44-1.02-2.41-1.36-.96-.33-2.09-.5-3.37-.5-1.49,0-2.84.23-4.05.68-1.21.45-2.28,1.01-3.22,1.68-.93.67-1.73,1.38-2.38,2.12-.66.74-1.2,1.42-1.64,2.03l1.09.92c.35-.41.75-.81,1.2-1.2.45-.39.94-.59,1.47-.59.44,0,.77.09,1.01.26.23.18.41.4.53.68.12.28.19.57.22.88.03.31.04.59.04.85v27.09c0,1.28.18,2.57.53,3.85.35,1.28.9,2.44,1.66,3.46s1.76,1.85,3,2.47c1.24.63,2.74.94,4.49.94.9,0,1.81-.12,2.71-.35.9-.23,1.78-.55,2.63-.94.85-.39,1.66-.84,2.45-1.34.79-.5,1.53-1.01,2.23-1.53,1.61-1.2,3.14-2.58,4.6-4.16v1.97c0,.88.16,1.7.48,2.47.32.77.81,1.44,1.47,2.01s1.46,1.02,2.41,1.36c.95.33,2.06.5,3.35.5,1.52,0,2.87-.23,4.07-.68,1.2-.45,2.26-1.01,3.2-1.68.93-.67,1.73-1.38,2.38-2.12.66-.74,1.2-1.42,1.64-2.04l-1.05-.92c-.38.41-.79.81-1.23,1.2Z"/>
    <path class="st1" d="M239.84,173.93c-.7.54-1.43,1.01-2.19,1.42-.76.41-1.58.73-2.45.96-.88.23-1.82.35-2.84.35-1.46,0-2.8-.23-4.03-.7-1.23-.47-2.34-1.1-3.35-1.88-1.01-.79-1.9-1.68-2.67-2.69-.77-1.01-1.42-2.06-1.95-3.17-.52-1.11-.93-2.21-1.2-3.3-.28-1.1-.42-2.11-.42-3.04l17.29-10.2c1.31-.82,2.36-1.77,3.15-2.87.79-1.09,1.18-2.33,1.18-3.7,0-1.14-.26-2.22-.79-3.26-.53-1.04-1.32-1.95-2.39-2.74-1.06-.79-2.4-1.41-4.01-1.88-1.6-.47-3.49-.7-5.64-.7-1.63,0-3.33.23-5.1.68-1.77.45-3.5,1.12-5.19,2.01-1.69.89-3.31,2.01-4.84,3.35-1.53,1.34-2.87,2.9-4.03,4.68-1.15,1.78-2.07,3.78-2.74,6-.67,2.22-1.01,4.66-1.01,7.31,0,3.68.56,6.89,1.68,9.63,1.12,2.74,2.62,5.03,4.49,6.87,1.87,1.84,4.01,3.22,6.41,4.14,2.41.92,4.88,1.38,7.42,1.38s4.8-.31,6.78-.94c1.98-.63,3.72-1.42,5.21-2.36,1.49-.95,2.76-1.96,3.81-3.04,1.05-1.08,1.91-2.07,2.58-2.98l-1.1-1.05c-.7.61-1.4,1.19-2.1,1.73ZM218.35,155.29c.03-1.18.12-2.41.26-3.7.15-1.28.36-2.56.64-3.83.28-1.27.66-2.4,1.14-3.39.48-.99,1.1-1.8,1.84-2.43.74-.63,1.64-.94,2.69-.94.82,0,1.52.26,2.1.79.58.53,1.06,1.18,1.44,1.97s.65,1.63.81,2.52c.16.89.24,1.7.24,2.43,0,.67-.04,1.23-.11,1.69s-.18.83-.33,1.14c-.15.31-.34.57-.59.79-.25.22-.56.44-.94.68l-9.23,5.3c0-.82.01-1.82.04-3Z"/>
    <path class="st1" d="M284.88,141.48c-1.05-1.78-2.34-3.05-3.87-3.81-1.53-.76-3.29-1.14-5.27-1.14-.9,0-1.79.12-2.65.35-.86.23-1.68.55-2.45.94-.77.39-1.5.84-2.19,1.34-.69.5-1.31,1.01-1.86,1.53-1.37,1.23-2.6,2.61-3.68,4.16,0-.64-.05-1.44-.15-2.39-.1-.95-.4-1.86-.9-2.73-.5-.88-1.27-1.63-2.32-2.26-1.05-.63-2.52-.94-4.42-.94-1.23,0-2.39.13-3.5.39-1.11.26-2.15.6-3.11,1.01-.96.41-1.86.88-2.69,1.42-.83.54-1.58,1.09-2.25,1.64l.92,1.09c.41-.32.79-.57,1.14-.74.35-.18.77-.26,1.27-.26.93,0,1.6.31,1.99.94.39.63.59,1.36.59,2.21v33.79c0,.32.06.74.18,1.27.12.53.41,1.04.88,1.53.47.5,1.15.93,2.03,1.29.89.36,2.11.55,3.65.55s2.77-.17,3.65-.5c.89-.33,1.56-.74,2.01-1.23.45-.48.74-.99.85-1.53.12-.54.18-1,.18-1.38v-29.24c.23-.29.52-.73.85-1.31.33-.58.74-1.17,1.23-1.75.48-.58,1.05-1.1,1.71-1.55.66-.45,1.41-.68,2.25-.68.7,0,1.39.18,2.06.55s1.28,1.12,1.84,2.27c.56,1.15,1,2.83,1.34,5.03s.5,5.14.5,8.82-.08,6.68-.24,9.35c-.16,2.67-.41,4.98-.74,6.94-.33,1.95-.74,3.58-1.2,4.88-.47,1.3-1.01,2.37-1.62,3.22-.61.85-1.29,1.49-2.03,1.93-.74.44-1.55.76-2.43.96l.48,1.8c1.05-.03,2.3-.2,3.74-.5,1.44-.31,2.95-.85,4.53-1.64,1.58-.79,3.14-1.88,4.68-3.26,1.55-1.39,2.93-3.17,4.16-5.36,1.23-2.19,2.22-4.84,2.98-7.97.76-3.12,1.14-6.8,1.14-11.03s-.28-7.99-.83-10.92c-.55-2.93-1.36-5.29-2.41-7.07Z"/>
    <path class="st1" d="M318.14,140.3c2.42,0,4.18-.56,5.27-1.69,1.09-1.12,1.64-2.63,1.64-4.53,0-.47-.07-.93-.2-1.4-.13-.47-.33-.88-.59-1.25-.26-.36-.59-.66-.99-.88-.39-.22-.85-.33-1.38-.33-.82,0-1.48.23-1.99.7-.51.47-.77,1.11-.77,1.93,0,.67.15,1.15.44,1.44.29.29.62.52.98.68.36.16.69.29.98.4s.44.3.44.59c0,.79-1.17,1.18-3.5,1.18h-7.14v-12.91h-3.5c-.55,2.45-1.49,4.51-2.8,6.17-1.31,1.66-2.74,2.99-4.27,3.98-1.53.99-3.03,1.7-4.49,2.12-1.46.42-2.6.64-3.41.64v3.15h4.9v32.43c0,1.72.28,3.19.83,4.42.55,1.23,1.29,2.25,2.21,3.06.92.82,1.97,1.42,3.15,1.79,1.18.38,2.41.57,3.7.57,2.28,0,4.16-.32,5.67-.96,1.5-.64,2.75-1.44,3.74-2.38.99-.95,1.79-1.98,2.39-3.09.6-1.11,1.11-2.13,1.55-3.06l-1.36-.61c-.38.82-.83,1.53-1.36,2.15-.44.55-.96,1.05-1.58,1.49-.61.44-1.31.66-2.1.66-1.02,0-1.82-.3-2.41-.9-.58-.6-.88-1.67-.88-3.22v-32.34h6.78Z"/>
    <path class="st1" d="M358.13,141.96c-1.85-1.84-4.01-3.2-6.46-4.09-2.45-.89-5.02-1.34-7.7-1.34s-5.25.48-7.7,1.44c-2.45.96-4.6,2.41-6.46,4.33-1.85,1.93-3.33,4.33-4.44,7.2-1.11,2.87-1.66,6.22-1.66,10.04s.55,7.18,1.66,10.07c1.11,2.89,2.59,5.3,4.44,7.22,1.85,1.93,4.01,3.38,6.46,4.35,2.45.98,5.02,1.47,7.7,1.47s5.25-.52,7.7-1.55c2.45-1.03,4.6-2.56,6.46-4.57,1.85-2.01,3.33-4.49,4.44-7.44,1.11-2.95,1.66-6.33,1.66-10.15s-.55-7.19-1.66-10c-1.11-2.82-2.59-5.14-4.44-6.98ZM350.38,166.03c-.16,2.28-.47,4.32-.94,6.13-.47,1.81-1.14,3.27-2.01,4.38-.88,1.11-2.03,1.66-3.46,1.66s-2.58-.53-3.46-1.6c-.88-1.07-1.55-2.47-2.01-4.22-.47-1.75-.77-3.74-.92-5.97-.15-2.23-.22-4.51-.22-6.85s.07-4.61.22-6.83c.15-2.22.45-4.19.92-5.93.47-1.73,1.14-3.14,2.01-4.2.88-1.06,2.03-1.6,3.46-1.6s2.58.5,3.46,1.51c.88,1.01,1.55,2.36,2.01,4.05.47,1.69.78,3.63.94,5.8.16,2.17.24,4.43.24,6.76s-.08,4.64-.24,6.92Z"/>
    <path class="st1" d="M396.99,164.15c-.83-1.63-1.87-3.17-3.11-4.62-1.24-1.44-2.58-2.82-4.03-4.11-1.44-1.3-2.79-2.55-4.03-3.76-1.24-1.21-2.27-2.38-3.11-3.5-.83-1.12-1.25-2.25-1.25-3.39,0-.82.13-1.52.39-2.12.26-.6.63-1.09,1.1-1.49.47-.39,1-.68,1.6-.85.6-.18,1.23-.26,1.9-.26,1.37,0,2.49.24,3.37.72.88.48,1.31,1.13,1.31,1.95,0,.26-.15.47-.46.63-.31.16-.65.35-1.03.57-.38.22-.72.5-1.03.85-.31.35-.46.83-.46,1.44,0,.93.33,1.67.98,2.21.66.54,1.61.81,2.87.81s2.33-.41,3.06-1.23c.73-.82,1.09-1.78,1.09-2.89,0-1.43-.31-2.68-.94-3.76-.63-1.08-1.52-1.98-2.67-2.69-1.15-.72-2.53-1.25-4.14-1.6-1.6-.35-3.38-.52-5.34-.52-1.69,0-3.33.23-4.92.68-1.59.45-3.01,1.13-4.25,2.03-1.24.9-2.23,2.04-2.98,3.41-.74,1.37-1.12,2.98-1.12,4.81,0,1.64.36,3.21,1.09,4.73.73,1.52,1.65,2.99,2.76,4.42,1.11,1.43,2.31,2.82,3.59,4.16,1.29,1.34,2.48,2.64,3.59,3.89,1.11,1.25,2.03,2.47,2.76,3.65.73,1.18,1.1,2.33,1.1,3.44,0,1.98-.67,3.48-2.01,4.49-1.34,1.01-3.06,1.51-5.17,1.51-.85,0-1.68-.14-2.49-.42-.82-.28-1.58-.64-2.3-1.07-.71-.44-1.36-.91-1.95-1.42-.58-.51-1.07-.98-1.44-1.42l-1.53,1.1c.5.76,1.2,1.6,2.1,2.54.9.93,1.99,1.82,3.26,2.65,1.27.83,2.72,1.53,4.35,2.1,1.63.57,3.46.85,5.47.85,2.31,0,4.4-.3,6.28-.9,1.88-.6,3.49-1.47,4.81-2.6s2.35-2.52,3.06-4.16c.72-1.63,1.07-3.5,1.07-5.6,0-1.87-.42-3.62-1.25-5.25Z"/>
  </g>
  <path class="st0" d="M263.81,122.24l5.68-16.54c.11-.32.17-.67.18-1.02.02-1.79-1.42-3.25-3.21-3.27s-3.25,1.42-3.27,3.21l-.18,17.49c0,.17.11.33.28.39.22.07.45-.04.52-.26Z"/>
  <path class="st0" d="M265.03,124.28c.02.23.22.39.45.38l17.43-1.47c.33-.03.68-.11,1-.25,1.64-.7,2.41-2.61,1.7-4.25-.7-1.64-2.61-2.41-4.25-1.7l-16.08,6.89c-.16.07-.26.23-.25.41Z"/>
  <path class="st0" d="M264.34,122.88c.13.19.39.23.57.1l14.36-9.98c.27-.19.53-.44.74-.72,1.07-1.43.78-3.46-.65-4.53-1.43-1.07-3.46-.78-4.53.65l-10.48,14c-.1.14-.11.33,0,.48Z"/>
</svg>